<?xml version="1.0" standalone="no"?>
<!DOCTYPE svg PUBLIC "-//W3C//DTD SVG 20010904//EN"
 "http://www.w3.org/TR/2001/REC-SVG-20010904/DTD/svg10.dtd">
<svg version="1.0" xmlns="http://www.w3.org/2000/svg"
 width="612.000000pt" height="336.000000pt" viewBox="0 0 612.000000 336.000000"
 preserveAspectRatio="xMidYMid meet">

<g transform="translate(0.000000,336.000000) scale(0.100000,-0.100000)"
fill="#000000" stroke="none">
<path d="M4215 1641 c-6 -5 -50 -23 -100 -40 -95 -32 -104 -40 -20 -17 49 13
145 54 145 62 0 7 -16 4 -25 -5z"/>
<path d="M5848 1483 c7 -3 16 -2 19 1 4 3 -2 6 -13 5 -11 0 -14 -3 -6 -6z"/>
<path d="M5798 1473 c6 -2 18 -2 25 0 6 3 1 5 -13 5 -14 0 -19 -2 -12 -5z"/>
<path d="M3438 1443 c7 -3 16 -2 19 1 4 3 -2 6 -13 5 -11 0 -14 -3 -6 -6z"/>
<path d="M5658 1443 c6 -2 18 -2 25 0 6 3 1 5 -13 5 -14 0 -19 -2 -12 -5z"/>
<path d="M5610 1429 c0 -5 5 -7 10 -4 6 3 10 8 10 11 0 2 -4 4 -10 4 -5 0 -10
-5 -10 -11z"/>
<path d="M3459 1428 c-7 -23 -4 -35 7 -35 9 0 11 4 4 12 -5 7 -7 15 -3 18 3 4
3 7 0 7 -4 0 -7 -1 -8 -2z"/>
<path d="M5515 1404 l-30 -15 30 6 c17 4 34 11 40 16 13 13 -5 10 -40 -7z"/>
<path d="M5417 1373 c-26 -9 -45 -18 -43 -21 5 -5 106 27 106 34 0 6 -11 4
-63 -13z"/>
<path d="M5300 1329 c-26 -14 -28 -18 -10 -13 33 9 79 33 60 33 -8 -1 -31 -10
-50 -20z"/>
<path d="M5216 1295 c-11 -8 -28 -15 -39 -15 -10 0 -25 -6 -32 -14 -9 -9 -34
-13 -77 -11 -76 3 -85 -1 -56 -25 l23 -19 -40 -1 c-27 -1 -34 -4 -22 -9 17 -6
17 -8 -5 -19 -13 -6 -29 -13 -37 -14 -8 -2 -21 -10 -30 -18 -9 -8 -30 -25 -46
-37 -17 -13 32 9 107 47 76 39 146 70 157 70 11 0 21 4 23 10 2 5 30 23 63 39
33 16 53 30 45 30 -8 0 -24 -6 -34 -14z"/>
<path d="M4580 1275 c14 -8 30 -14 35 -14 6 0 -1 6 -15 14 -14 8 -29 14 -35
14 -5 0 1 -6 15 -14z"/>
<path d="M4955 1250 c4 -6 11 -8 16 -5 14 9 11 15 -7 15 -8 0 -12 -5 -9 -10z"/>
<path d="M5535 1229 c-4 -5 50 -10 132 -11 111 -1 124 -3 68 -8 -66 -5 -68 -6
-33 -14 20 -4 41 -5 46 -2 6 3 21 2 34 -3 18 -7 6 -10 -57 -17 -44 -4 -71 -10
-60 -12 11 -3 118 6 238 19 191 20 217 25 217 40 0 16 -20 18 -290 18 -167 0
-292 -4 -295 -10z"/>
<path d="M5338 1223 c7 -3 16 -2 19 1 4 3 -2 6 -13 5 -11 0 -14 -3 -6 -6z"/>
<path d="M5388 1223 c12 -2 30 -2 40 0 9 3 -1 5 -23 4 -22 0 -30 -2 -17 -4z"/>
<path d="M5468 1223 c12 -2 30 -2 40 0 9 3 -1 5 -23 4 -22 0 -30 -2 -17 -4z"/>
<path d="M3643 1205 c0 -9 12 -24 26 -33 14 -9 28 -19 31 -22 8 -8 70 -42 70
-38 0 2 -24 22 -52 43 -29 22 -58 46 -64 54 -9 11 -11 11 -11 -4z"/>
<path d="M4918 1213 c6 -2 18 -2 25 0 6 3 1 5 -13 5 -14 0 -19 -2 -12 -5z"/>
<path d="M5458 1183 c12 -2 32 -2 45 0 12 2 2 4 -23 4 -25 0 -35 -2 -22 -4z"/>
<path d="M3970 1005 c0 -8 73 -36 78 -30 3 3 3 5 0 5 -3 0 -22 7 -42 15 -20 8
-36 13 -36 10z"/>
</g>
</svg>
