<?xml version="1.0" encoding="UTF-8"?>
<svg version="1.1" xmlns="http://www.w3.org/2000/svg" width="258" height="553">
<path d="M0 0 C4.3403193 0.50285346 6.28035301 1.78426482 9.328125 4.8671875 C10.52103149 6.06347778 10.52103149 6.06347778 11.73803711 7.28393555 C12.98145874 8.56651245 12.98145874 8.56651245 14.25 9.875 C15.10537354 10.74616455 15.96074707 11.6173291 16.84204102 12.51489258 C22.60442178 18.43380286 28.02317428 24.40151197 33 31 C33.92338055 32.17274085 34.84794863 33.34454725 35.7734375 34.515625 C64.16964201 70.88180231 80.80656461 114.49463689 87 160 C87.1045752 160.73718262 87.20915039 161.47436523 87.31689453 162.23388672 C88.4212182 171.30751575 88.24395816 180.49895365 88.25 189.625 C88.25067474 190.53973083 88.25134949 191.45446167 88.25204468 192.39691162 C88.23519053 206.79791702 87.61819048 220.80665162 85 235 C84.83902832 235.91700684 84.67805664 236.83401367 84.51220703 237.77880859 C80.30730947 261.16223987 72.49969452 283.71471677 62 305 C61.46705322 306.09248047 61.46705322 306.09248047 60.92333984 307.20703125 C52.83179833 323.63430346 42.56587416 338.82177342 31 353 C30.54689453 353.55606934 30.09378906 354.11213867 29.62695312 354.68505859 C18.93684133 367.6957605 7.33844556 379.68516581 -6 390 C-7.27648412 391.01637165 -8.55249186 392.03334176 -9.828125 393.05078125 C-32.98019217 411.32673072 -32.98019217 411.32673072 -44 415 C-44 414.01 -44 413.02 -44 412 C-43.19820312 411.57332031 -42.39640625 411.14664062 -41.5703125 410.70703125 C-26.1441139 402.22437102 -12.12218783 391.70725214 1 380 C1.53963379 379.52208008 2.07926758 379.04416016 2.63525391 378.55175781 C25.08349795 358.58460084 43.03893982 334.56093179 57 308 C57.39687012 307.25105469 57.79374023 306.50210937 58.20263672 305.73046875 C70.97118669 281.29751156 78.43418787 255.09190766 83 228 C83.14405273 227.17161621 83.28810547 226.34323242 83.43652344 225.48974609 C87.54997003 200.59630206 86.43311943 172.71530713 82 148 C81.8443457 147.09314453 81.68869141 146.18628906 81.52832031 145.25195312 C76.84701203 118.77125919 67.47903492 93.74137525 55 70 C54.62633301 69.28440918 54.25266602 68.56881836 53.86767578 67.83154297 C40.66924071 42.86887328 22.05673861 21.63498476 2 2 C1.34 1.34 0.68 0.68 0 0 Z " fill="#FEFEFE" transform="translate(44,0)"/>
<path d="M0 0 C22.48572965 9.05533909 40.7295365 54.33372741 49.55859375 74.8984375 C58.43277751 96.54722527 65.08501752 118.92784134 69 142 C69.17499023 143.00853027 69.34998047 144.01706055 69.53027344 145.05615234 C74.38245461 174.44307535 74.03218226 206.6538584 69 236 C68.83371094 236.9792041 68.66742188 237.9584082 68.49609375 238.96728516 C60.58423498 283.82312889 42.56385146 328.2402552 14 364 C13.3709375 364.80824219 12.741875 365.61648438 12.09375 366.44921875 C10.09417343 368.99376189 8.05702919 371.50165781 6 374 C5.36868164 374.76884521 5.36868164 374.76884521 4.72460938 375.55322266 C-5.56940004 388.02311174 -16.62079489 399.90609511 -29.36328125 409.9140625 C-31.14562934 411.32409788 -32.89305508 412.77924746 -34.60546875 414.2734375 C-52.14096275 429.55825455 -72.71989347 441.70817266 -94 451 C-93 448 -93 448 -91.22851562 446.82421875 C-90.07899414 446.26154297 -90.07899414 446.26154297 -88.90625 445.6875 C-88.04950684 445.25783936 -87.19276367 444.82817871 -86.31005859 444.38549805 C-84.91907959 443.69967651 -84.91907959 443.69967651 -83.5 443 C-62.71225209 432.40905242 -42.98630086 419.04080618 -26 403 C-24.75403551 401.93277054 -23.50406044 400.87020443 -22.25 399.8125 C-12.26082848 391.07957317 -3.10730368 381.49739656 5 371 C6.01662623 369.71200206 7.03357671 368.42426002 8.05078125 367.13671875 C55.01867052 307.21602079 75.68304445 232.10628278 68.23120117 156.41186523 C67.63977696 151.57710407 66.87170237 146.79157677 66 142 C65.71793701 140.38859131 65.71793701 140.38859131 65.43017578 138.74462891 C60.76261169 112.79267551 52.70659621 87.64225571 41 64 C40.60264648 63.17838379 40.20529297 62.35676758 39.79589844 61.51025391 C29.96849646 41.29487824 17.54088991 19.03401793 1.20703125 3.26953125 C0 2 0 2 0 0 Z " fill="#FEFEFE" transform="translate(94,0)"/>
<path d="M0 0 C4.32088211 1.46159229 7.64255749 3.76670541 11.1875 6.5625 C11.75557373 7.00505127 12.32364746 7.44760254 12.90893555 7.90356445 C17.35269554 11.40306442 21.58911674 15.09689747 25.74609375 18.93359375 C27.7463006 20.76740558 29.79343238 22.51037367 31.875 24.25 C73.23770244 60.55634001 96.5605074 116.86982518 100.80151367 170.91601562 C104.34291562 225.94060285 88.07535394 283.08427283 53 326 C52.36707031 326.8353125 51.73414063 327.670625 51.08203125 328.53125 C37.32629994 346.32309409 20.04830706 362.05701383 1 374 C0.505 372.515 0.505 372.515 0 371 C0.99257813 370.27296875 1.98515625 369.5459375 3.0078125 368.796875 C20.14970365 356.14968542 35.76405926 342.81260631 49 326 C49.77988281 325.04867188 50.55976562 324.09734375 51.36328125 323.1171875 C74.5569036 294.18989456 88.36101067 259.22049037 95 223 C95.23460938 221.72640625 95.46921875 220.4528125 95.7109375 219.140625 C104.63275373 161.98928047 88.99881995 102.80803957 55.54296875 56.06445312 C42.3993394 38.11834382 26.84511961 22.26774692 9 9 C7.20420092 7.65131824 5.41193119 6.29790939 3.625 4.9375 C2.91601562 4.41027344 2.20703125 3.88304687 1.4765625 3.33984375 C0.74566406 2.67662109 0.74566406 2.67662109 0 2 C0 1.34 0 0.68 0 0 Z " fill="#FEFEFE" transform="translate(0,4)"/>
<path d="M0 0 C0.99 0 1.98 0 3 0 C4.65063477 1.91748047 4.65063477 1.91748047 6.44140625 4.6171875 C7.10269531 5.60783203 7.76398438 6.59847656 8.4453125 7.61914062 C9.14398438 8.69357422 9.84265625 9.76800781 10.5625 10.875 C11.28050781 11.96748047 11.99851563 13.05996094 12.73828125 14.18554688 C18.62145817 23.22722796 24.02791691 32.4311283 29 42 C29.3496582 42.66370605 29.69931641 43.32741211 30.05957031 44.01123047 C45.39882302 73.23056611 55.70774141 104.73541625 61.25 137.25 C61.40114258 138.13429687 61.55228516 139.01859375 61.70800781 139.9296875 C64.39484047 156.76636349 65.38044856 173.53012299 65.3125 190.5625 C65.31067719 191.5191153 65.30885437 192.47573059 65.30697632 193.46133423 C65.07418129 266.37470906 39.44664409 339.27029771 -8 395 C-8.85263911 396.03687604 -9.70414695 397.07468308 -10.5546875 398.11328125 C-21.52057108 411.36396656 -33.63841341 424.36359712 -47.29272461 434.87573242 C-50.09849386 437.07728335 -52.80067258 439.37446565 -55.51171875 441.69140625 C-61.66948871 446.87199952 -68.15961298 451.43901282 -74.875 455.875 C-75.45449402 456.25952332 -76.03398804 456.64404663 -76.63104248 457.04022217 C-118.86692691 485 -118.86692691 485 -130 485 C-130 484.34 -130 483.68 -130 483 C-129.27111572 482.65855957 -128.54223145 482.31711914 -127.79125977 481.96533203 C-113.4918746 475.24190686 -99.36667885 468.47429966 -86 460 C-85.00097656 459.37222656 -84.00195312 458.74445313 -82.97265625 458.09765625 C-62.74226886 444.97149269 -44.69918104 429.8381088 -27.625 412.875 C-27.11425934 412.36970764 -26.60351868 411.86441528 -26.07730103 411.34381104 C-19.24877143 404.56959507 -12.95715651 397.56927361 -7 390 C-6.52433594 389.40928711 -6.04867187 388.81857422 -5.55859375 388.20996094 C47.21415419 322.62954122 69.26633225 238.07888545 61 155 C57.00181998 120.15086343 47.60048883 85.48342102 32 54 C31.30680664 52.57324951 31.30680664 52.57324951 30.59960938 51.11767578 C23.06651889 35.69359897 14.41342546 21.44416332 4.60302734 7.37402344 C2.97619997 4.96475305 1.47334313 2.50551886 0 0 Z " fill="#FEFEFE" transform="translate(130,0)"/>
<path d="M0 0 C3.80886666 1.26962222 4.16697142 2.48247438 6.15234375 5.90625 C6.75804199 6.9473291 7.36374023 7.9884082 7.98779297 9.06103516 C8.63119629 10.19589355 9.27459961 11.33075195 9.9375 12.5 C10.43446381 13.37117462 10.43446381 13.37117462 10.94146729 14.25994873 C38.91731553 63.39371908 56.91712356 120.13031647 58 177 C58.02046387 177.93602051 58.04092773 178.87204102 58.06201172 179.83642578 C59.09648275 235.29604226 48.68499786 289.71692973 25 340 C24.47841309 341.10770752 24.47841309 341.10770752 23.94628906 342.23779297 C21.73496288 346.88157796 19.40366453 351.45320008 17 356 C16.6400293 356.68803711 16.28005859 357.37607422 15.90917969 358.08496094 C6.59816582 375.77028307 -4.45865266 392.44102472 -17 408 C-17.73476562 408.92683594 -18.46953125 409.85367187 -19.2265625 410.80859375 C-24.42225391 417.28025884 -29.94616187 423.4088086 -35.59716797 429.47949219 C-36.98745781 430.98640572 -38.35763283 432.50925246 -39.72265625 434.0390625 C-46.09673431 441.15938529 -52.81875874 447.6974857 -60 454 C-60.97195312 454.85980469 -61.94390625 455.71960938 -62.9453125 456.60546875 C-90.06228483 480.25153892 -120.83074596 498.65680733 -153.5625 513.375 C-154.30032715 513.70894775 -155.0381543 514.04289551 -155.79833984 514.38696289 C-160.14081101 516.30985938 -164.40279575 517.80388116 -169 519 C-169 518.34 -169 517.68 -169 517 C-168.34330322 516.73485596 -167.68660645 516.46971191 -167.01000977 516.1965332 C-132.0445264 501.98319293 -100.26157566 483.85631238 -71 460 C-70.43796875 459.54383301 -69.8759375 459.08766602 -69.296875 458.61767578 C-60.43667795 451.36034121 -52.2396066 443.44488951 -44.125 435.375 C-43.39544601 434.65334656 -43.39544601 434.65334656 -42.65115356 433.91711426 C-35.97002835 427.29204989 -29.85680742 420.36484765 -24 413 C-23.02343235 411.82617056 -22.04353134 410.65509652 -21.05859375 409.48828125 C22.10547339 357.57168025 46.25573197 292.54081046 54 226 C54.1045752 225.11304443 54.20915039 224.22608887 54.31689453 223.31225586 C55.37957888 212.72818588 55.24385524 202.06356663 55.25 191.4375 C55.25067474 190.38921021 55.25134949 189.34092041 55.25204468 188.26086426 C55.23540902 171.97159933 54.63662909 156.10530219 52 140 C51.82839355 138.90993652 51.65678711 137.81987305 51.47998047 136.69677734 C43.89537389 89.44718624 27.24951832 43.49010373 1.328125 3.1328125 C0 1 0 1 0 0 Z " fill="#FEFEFE" transform="translate(169,0)"/>
<path d="M0 0 C34.53240092 21.1891239 55.64271544 67.30247452 65 105 C70.87224839 130.783342 71.64050742 160.06785581 66 186 C65.80132324 186.91604004 65.60264648 187.83208008 65.39794922 188.77587891 C55.98731239 230.64087676 33.61856232 268.07216014 1 296 C0.67 294.68 0.34 293.36 0 292 C0.94359375 291.1646875 0.94359375 291.1646875 1.90625 290.3125 C28.2626384 266.81403323 47.96878642 237.04057163 58 203 C58.35698975 201.80093018 58.35698975 201.80093018 58.72119141 200.57763672 C72.65844667 152.60373036 66.79014687 100.76142378 43.03857422 56.88525391 C33.70886647 39.94966311 22.46081082 25.21527687 8.63671875 11.6875 C8.08226074 11.14359619 7.52780273 10.59969238 6.95654297 10.03930664 C5.88115812 8.991549 4.79838707 7.95130589 3.70751953 6.91967773 C2.41591941 5.66821208 1.20066182 4.33895794 0 3 C0 2.01 0 1.02 0 0 Z " fill="#FEFEFE" transform="translate(0,43)"/>
<path d="M0 0 C25.5443267 24.14277957 36.85420326 64.69354203 38.22265625 98.80859375 C39.19710133 136.95224172 26.94668216 175.17470995 3 205 C1.515 205.99 1.515 205.99 0 207 C0.10955897 202.72720007 1.29352663 200.37764627 3.9375 197.1875 C14.16275481 184.6154654 20.52630006 170.12487394 26 155 C26.40992187 153.906875 26.81984375 152.81375 27.2421875 151.6875 C40.51687113 112.99539888 35.34864691 70.00986726 18.24560547 33.53662109 C13.58107068 24.03749988 8.26911839 14.76556061 1.1796875 6.859375 C-0.33940669 4.4650411 -0.22055374 2.78089497 0 0 Z " fill="#FFFFFF" transform="translate(0,87)"/>
<path d="M0 0 C0.66 0 1.32 0 2 0 C27.77068457 48.75445604 45.46338193 98.7918715 51 154 C51.09571289 154.91773193 51.19142578 155.83546387 51.29003906 156.78100586 C52.29674485 167.80876416 52.24369031 178.87307647 52.25 189.9375 C52.25067474 191.00246704 52.25134949 192.06743408 52.25204468 193.16467285 C52.23451901 210.63071712 51.55091282 227.69597326 49 245 C48.83371094 246.14662109 48.66742188 247.29324219 48.49609375 248.47460938 C42.09357745 291.08691232 28.74122414 334.56042972 7 372 C6.67 371.34 6.34 370.68 6 370 C6.92114258 367.70703125 6.92114258 367.70703125 8.39453125 364.8125 C8.93311768 363.73468262 9.4717041 362.65686523 10.02661133 361.54638672 C10.61595459 360.3760791 11.20529785 359.20577148 11.8125 358 C37.33792821 306.34640573 50.26546672 249.17887672 50.1875 191.625 C50.18689575 190.79440063 50.1862915 189.96380127 50.18566895 189.10803223 C50.06109681 125.67650829 33.2472181 66.44097144 5 10 C4.49694336 8.99227539 3.99388672 7.98455078 3.47558594 6.94628906 C2.31868126 4.63004069 1.16024876 2.31457453 0 0 Z " fill="#FEFEFE" transform="translate(206,0)"/>
<path d="M0 0 C0 4.26977649 -2.31769926 6.811158 -4.6875 10.1875 C-5.17718262 10.89148926 -5.66686523 11.59547852 -6.17138672 12.32080078 C-13.67670505 22.95865047 -21.9834898 33.02257193 -30.8046875 42.59375 C-32.62458641 44.58851464 -34.38823185 46.61332806 -36.1484375 48.66015625 C-40.48027403 53.62056548 -45.09243241 58.2843359 -49.75 62.9375 C-51.08333374 64.26962524 -51.08333374 64.26962524 -52.44360352 65.62866211 C-57.58737035 70.72444867 -62.7323247 75.57786799 -68.45703125 80.015625 C-70.88092977 81.90708498 -73.19931509 83.89215637 -75.51489258 85.91381836 C-83.5695821 92.91083371 -92.16803411 99.02730365 -101 105 C-101.68578125 105.4640625 -102.3715625 105.928125 -103.078125 106.40625 C-130.87190536 125.07688108 -160.56633869 139.57634675 -192 151 C-192.33 150.34 -192.66 149.68 -193 149 C-192.29319092 148.73485596 -191.58638184 148.46971191 -190.8581543 148.1965332 C-156.73346397 135.30949919 -124.67184434 119.36932513 -95 98 C-94.29407715 97.49227051 -93.5881543 96.98454102 -92.86083984 96.46142578 C-83.16404839 89.43976684 -73.9324104 81.9690855 -65 74 C-64.46842285 73.52626953 -63.9368457 73.05253906 -63.38916016 72.56445312 C-56.61002338 66.48761241 -50.07771446 60.17136887 -43.625 53.75 C-42.97096191 53.10063477 -42.31692383 52.45126953 -41.64306641 51.78222656 C-27.68410455 37.7770312 -15.71847374 21.97001811 -4.32763672 5.85253906 C-2.91361605 3.87946278 -1.46276684 1.93713425 0 0 Z " fill="#FFFFFF" transform="translate(193,402)"/>
<path d="M0 0 C2.23370599 3.35055899 2.75749742 5.82192459 3.5625 9.75 C3.81128906 10.94109375 4.06007813 12.1321875 4.31640625 13.359375 C7.62906183 31.00163214 10.51252136 61.23121797 0 77 C-0.05608659 75.41711186 -0.09368643 73.83357192 -0.125 72.25 C-0.14820312 71.36828125 -0.17140625 70.4865625 -0.1953125 69.578125 C-0.02463616 66.45133439 0.41310122 63.64937886 0.9921875 60.58203125 C2.16190624 53.86004757 2.30380056 47.26667639 2.26074219 40.4543457 C2.24999231 38.43605662 2.26072095 36.41865349 2.2734375 34.40039062 C2.25986623 27.50957855 1.85168178 21.07601164 0.4453125 14.32983398 C-0.13372995 11.30033721 -0.19742416 8.39052672 -0.125 5.3125 C-0.10695312 4.29800781 -0.08890625 3.28351563 -0.0703125 2.23828125 C-0.04710937 1.49964844 -0.02390625 0.76101562 0 0 Z " fill="#FFFFFF" transform="translate(0,152)"/>
<path d="M0 0 C0.33 0.66 0.66 1.32 1 2 C-0.31931167 4.54332317 -1.68744206 6.94172628 -3.1875 9.375 C-3.58775391 10.04789062 -3.98800781 10.72078125 -4.40039062 11.4140625 C-6.61069195 15.05371589 -8.79995234 18.13099175 -12 21 C-10.32508169 16.11963459 -7.63208039 12.00847052 -4.875 7.6875 C-4.40707031 6.94693359 -3.93914062 6.20636719 -3.45703125 5.44335938 C-2.30835804 3.62658032 -1.15467631 1.81296963 0 0 Z " fill="#FFFFFF" transform="translate(206,381)"/>
<path d="M0 0 C0.33 0.66 0.66 1.32 1 2 C0.22265625 3.7265625 0.22265625 3.7265625 -0.9375 5.625 C-1.618125 6.73875 -2.29875 7.8525 -3 9 C-3.33 8.34 -3.66 7.68 -4 7 C-3.22265625 5.2734375 -3.22265625 5.2734375 -2.0625 3.375 C-1.381875 2.26125 -0.70125 1.1475 0 0 Z " fill="#FFFFFF" transform="translate(211,372)"/>
</svg>
